<?xml version="1.0" encoding="utf-8"?>
<!-- Generator: Adobe Illustrator 25.0.0, SVG Export Plug-In . SVG Version: 6.00 Build 0)  -->
<svg version="1.1" id="Capa_1" xmlns="http://www.w3.org/2000/svg" xmlns:xlink="http://www.w3.org/1999/xlink" x="0px" y="0px"
	 viewBox="0 0 12 12" style="enable-background:new 0 0 12 12;" xml:space="preserve">
<style type="text/css">
	.st0{fill:#FFFFFF;}
</style>
<path class="st0" d="M11.2,0.4L8.9,0.8l1.6,2l1.1-0.2L11.2,0.4z M7.2,1.1L6.1,1.4l1.6,2l1.1-0.2L7.2,1.1z M4.5,1.7L3.3,1.9l1.6,2
	L6,3.7L4.5,1.7z M1.7,2.2L1.1,2.4c-0.6,0.1-1,0.7-0.9,1.3c0,0,0,0,0,0l0.2,1.1l2.8-0.6L1.7,2.2z M10.7,5.9v4.6H1.6V5.9H10.7z
	 M11.8,4.8H0.4v5.7c0,0.6,0.5,1.1,1.1,1.1h9.1c0.6,0,1.1-0.5,1.1-1.1V4.8z"/>
</svg>
